<svg width="282" height="48" viewBox="0 0 282 48" fill="none" xmlns="http://www.w3.org/2000/svg">
<path d="M15.128 47V3.48H22.488V47H15.128ZM0.536 8.92V2.2H37.08V8.92H0.536ZM47.4555 47.64C44.6822 47.64 42.1648 46.936 39.9035 45.528C37.6848 44.12 35.9142 42.2213 34.5915 39.832C33.3115 37.4 32.6715 34.6907 32.6715 31.704C32.6715 28.6747 33.3115 25.9653 34.5915 23.576C35.9142 21.144 37.6848 19.224 39.9035 17.816C42.1648 16.3653 44.6822 15.64 47.4555 15.64C49.8022 15.64 51.8715 16.152 53.6635 17.176C55.4982 18.1573 56.9488 19.5227 58.0155 21.272C59.0822 23.0213 59.6155 25.0053 59.6155 27.224V36.056C59.6155 38.2747 59.0822 40.2587 58.0155 42.008C56.9915 43.7573 55.5622 45.144 53.7275 46.168C51.8928 47.1493 49.8022 47.64 47.4555 47.64ZM48.6075 40.984C51.2102 40.984 53.3008 40.1093 54.8795 38.36C56.5008 36.6107 57.3115 34.3707 57.3115 31.64C57.3115 29.8053 56.9488 28.184 56.2235 26.776C55.4982 25.368 54.4742 24.28 53.1515 23.512C51.8715 22.7013 50.3568 22.296 48.6075 22.296C46.9008 22.296 45.3862 22.7013 44.0635 23.512C42.7835 24.28 41.7595 25.368 40.9915 26.776C40.2662 28.184 39.9035 29.8053 39.9035 31.64C39.9035 33.4747 40.2662 35.096 40.9915 36.504C41.7595 37.912 42.7835 39.0213 44.0635 39.832C45.3862 40.6 46.9008 40.984 48.6075 40.984ZM56.8635 47V38.744L58.0795 31.256L56.8635 23.832V16.28H63.9035V47H56.8635ZM81.7645 47.64C80.0578 47.64 78.4152 47.4267 76.8365 47C75.2578 46.5307 73.8072 45.8907 72.4845 45.08C71.1618 44.2267 70.0098 43.2027 69.0285 42.008L73.5085 37.528C74.5752 38.7653 75.7912 39.704 77.1565 40.344C78.5645 40.9413 80.1432 41.24 81.8925 41.24C83.4712 41.24 84.6658 41.0053 85.4765 40.536C86.2872 40.0667 86.6925 39.384 86.6925 38.488C86.6925 37.5493 86.3085 36.824 85.5405 36.312C84.7725 35.8 83.7698 35.3733 82.5325 35.032C81.3378 34.648 80.0578 34.264 78.6925 33.88C77.3698 33.496 76.0898 32.984 74.8525 32.344C73.6578 31.6613 72.6765 30.744 71.9085 29.592C71.1405 28.44 70.7565 26.9467 70.7565 25.112C70.7565 23.1493 71.2045 21.464 72.1005 20.056C73.0392 18.648 74.3405 17.56 76.0045 16.792C77.7112 16.024 79.7378 15.64 82.0845 15.64C84.5592 15.64 86.7352 16.088 88.6125 16.984C90.5325 17.8373 92.1325 19.1387 93.4125 20.888L88.9325 25.368C88.0365 24.2587 87.0125 23.4267 85.8605 22.872C84.7085 22.3173 83.3858 22.04 81.8925 22.04C80.4845 22.04 79.3965 22.2533 78.6285 22.68C77.8605 23.1067 77.4765 23.7253 77.4765 24.536C77.4765 25.3893 77.8605 26.0507 78.6285 26.52C79.3965 26.9893 80.3778 27.3947 81.5725 27.736C82.8098 28.0773 84.0898 28.4613 85.4125 28.888C86.7778 29.272 88.0578 29.8267 89.2525 30.552C90.4898 31.2347 91.4925 32.1733 92.2605 33.368C93.0285 34.52 93.4125 36.0347 93.4125 37.912C93.4125 40.8987 92.3672 43.2667 90.2765 45.016C88.1858 46.7653 85.3485 47.64 81.7645 47.64ZM118.737 47L105.745 31.32L118.673 16.28H127.057L112.208 33.176L112.529 29.144L127.697 47H118.737ZM99.2165 47V0.919998H106.257V47H99.2165Z" fill="black"/>
<path d="M145.165 47V1.816H155.213V47H145.165ZM152.845 29.272V20.632H175.437V29.272H152.845ZM152.845 10.456V1.816H176.461V10.456H152.845ZM182.019 47V0.535999H191.811V47H182.019ZM213.682 47.704C210.482 47.704 207.581 47 204.978 45.592C202.418 44.1413 200.391 42.1787 198.898 39.704C197.405 37.2293 196.658 34.456 196.658 31.384C196.658 28.312 197.405 25.56 198.898 23.128C200.391 20.696 202.418 18.776 204.978 17.368C207.538 15.9173 210.439 15.192 213.682 15.192C216.925 15.192 219.826 15.896 222.386 17.304C224.946 18.712 226.973 20.6533 228.466 23.128C229.959 25.56 230.706 28.312 230.706 31.384C230.706 34.456 229.959 37.2293 228.466 39.704C226.973 42.1787 224.946 44.1413 222.386 45.592C219.826 47 216.925 47.704 213.682 47.704ZM213.682 38.808C215.09 38.808 216.327 38.5093 217.394 37.912C218.461 37.272 219.271 36.3973 219.826 35.288C220.423 34.136 220.722 32.8347 220.722 31.384C220.722 29.9333 220.423 28.6747 219.826 27.608C219.229 26.4987 218.397 25.6453 217.33 25.048C216.306 24.408 215.09 24.088 213.682 24.088C212.317 24.088 211.101 24.408 210.034 25.048C208.967 25.6453 208.135 26.4987 207.538 27.608C206.941 28.7173 206.642 29.9973 206.642 31.448C206.642 32.856 206.941 34.136 207.538 35.288C208.135 36.3973 208.967 37.272 210.034 37.912C211.101 38.5093 212.317 38.808 213.682 38.808ZM242.572 47L231.82 15.896H241.42L248.076 38.488L245.26 38.552L252.62 15.896H260.556L267.98 38.552L265.1 38.488L271.82 15.896H281.42L270.668 47H262.668L255.436 25.496H257.868L250.508 47H242.572Z" fill="#FFC600"/>
</svg>
