<svg width="96" height="30" viewBox="0 0 96 30" fill="none" xmlns="http://www.w3.org/2000/svg">
<path d="M30.1104 11.8105H28.7773L28.4287 13.1367H27.1367V10.1289H35.2578V13.1367H33.959L33.6104 11.8105H32.2773V18.3867L33.6104 18.8105V20H28.7773V18.8105L30.1104 18.3867V11.8105ZM40.4053 19.0908C40.4053 19.109 40.2845 19.2116 40.043 19.3984C39.8014 19.5853 39.512 19.7562 39.1748 19.9111C38.8376 20.0615 38.4912 20.1367 38.1357 20.1367C37.4521 20.1367 36.9167 19.9476 36.5293 19.5693C36.1465 19.1865 35.9551 18.6442 35.9551 17.9424C35.9551 17.1403 36.2422 16.5547 36.8164 16.1855C37.3906 15.8164 38.2269 15.6318 39.3252 15.6318H40.3096V14.8594C40.3096 14.1758 39.9495 13.8363 39.2295 13.8408C39.0153 13.8408 38.8171 13.8568 38.6348 13.8887C38.4525 13.9206 38.3066 13.9548 38.1973 13.9912C38.0924 14.0231 38.0264 14.0436 37.999 14.0527L37.7871 14.9346H36.5293L36.4336 12.8633C36.5156 12.8359 36.7161 12.7767 37.0352 12.6855C37.3587 12.5944 37.7438 12.5078 38.1904 12.4258C38.6416 12.3438 39.0677 12.3027 39.4688 12.3027C40.1888 12.3027 40.7607 12.3939 41.1846 12.5762C41.6084 12.7539 41.9183 13.0456 42.1143 13.4512C42.3102 13.8522 42.4082 14.3923 42.4082 15.0713V18.5303L43.4609 18.7832V19.9043L40.6582 20L40.4053 19.0908ZM37.9854 17.7305C37.9854 18.0039 38.056 18.2135 38.1973 18.3594C38.3431 18.5007 38.5482 18.5713 38.8125 18.5713C39.0358 18.5713 39.2568 18.512 39.4756 18.3936C39.6943 18.2705 39.8789 18.1452 40.0293 18.0176C40.1797 17.8854 40.2731 17.7988 40.3096 17.7578V16.8213H39.5098C38.9674 16.8213 38.5778 16.8942 38.3408 17.04C38.1038 17.1859 37.9854 17.416 37.9854 17.7305ZM45.71 18.4619C45.71 18.471 45.833 18.4961 46.0791 18.5371C46.3252 18.5781 46.5941 18.5986 46.8857 18.5986C47.6514 18.5986 48.0319 18.3708 48.0273 17.915C48.0273 17.71 47.9202 17.5436 47.7061 17.416C47.4919 17.2884 47.1523 17.1471 46.6875 16.9922C46.1908 16.8236 45.7829 16.6595 45.4639 16.5C45.1494 16.3405 44.876 16.1149 44.6436 15.8232C44.4111 15.527 44.2949 15.151 44.2949 14.6953C44.2949 13.875 44.5684 13.2712 45.1152 12.8838C45.6667 12.4964 46.3548 12.3027 47.1797 12.3027C47.5534 12.3027 47.9316 12.3324 48.3145 12.3916C48.7018 12.4508 49.0254 12.5169 49.2852 12.5898C49.5495 12.6582 49.7135 12.7015 49.7773 12.7197L49.7227 14.8184H48.5332L48.3281 13.9775C48.3281 13.9684 48.2233 13.9434 48.0137 13.9023C47.8086 13.8613 47.5898 13.8408 47.3574 13.8408C47.0475 13.8408 46.8083 13.9023 46.6396 14.0254C46.4756 14.1439 46.3936 14.3193 46.3936 14.5518C46.3936 14.7568 46.5007 14.9209 46.7148 15.0439C46.929 15.167 47.2686 15.2969 47.7334 15.4336C48.2301 15.5931 48.638 15.7458 48.957 15.8916C49.2806 16.0374 49.5563 16.2516 49.7842 16.5342C50.0166 16.8122 50.1328 17.1745 50.1328 17.6211C50.1328 18.4141 49.8411 19.0316 49.2578 19.4736C48.6745 19.9157 47.8929 20.1367 46.9131 20.1367C46.5212 20.1367 46.1338 20.1139 45.751 20.0684C45.3682 20.0228 45.0514 19.9772 44.8008 19.9316C44.5547 19.8861 44.3997 19.8519 44.3359 19.8291V17.5527H45.5938L45.71 18.4619ZM55.0479 15.2559L55.998 13.8271L55.3828 13.6289V12.5078L58.999 12.4395V13.6289L58.0146 13.8135L56.7158 15.6455L58.2812 18.5439L59.3477 18.8789V20H56.7568L55.0205 16.582H54.125V18.5303L54.8975 18.8789V20H50.9053V18.8789L52.0264 18.5303V10.6621L50.9053 10.3818V9.26074L54.125 9.15137V15.2559H55.0479ZM63.4082 18.8105L64.4609 18.3867V11.8105L63.4082 11.3867V10.1973L66.6279 10.1289H70.5518V12.7881H69.2461L68.8975 11.8105H66.6279V14.2578H69.5264V15.8027H66.6279V18.3867L67.9199 18.8105V20H63.4082V18.8105ZM75.6719 18.8789V20H71.1807V18.8789L72.3018 18.5303V10.6621L71.1807 10.3818V9.26074L74.4141 9.15137V18.5303L75.6719 18.8789ZM80.0127 12.3027C81.1383 12.3027 82.0065 12.6309 82.6172 13.2871C83.2324 13.9434 83.54 14.8753 83.54 16.083C83.54 16.9124 83.3851 17.6325 83.0752 18.2432C82.7699 18.8538 82.3369 19.3232 81.7764 19.6514C81.2158 19.9749 80.5573 20.1367 79.8008 20.1367C77.4219 20.1367 76.2324 18.8538 76.2324 16.2881C76.2324 15.4587 76.3874 14.7454 76.6973 14.1484C77.0117 13.5514 77.4538 13.0957 78.0234 12.7812C78.5931 12.4622 79.2562 12.3027 80.0127 12.3027ZM79.9375 13.9775C79.4089 13.9775 79.0192 14.1484 78.7686 14.4902C78.5225 14.832 78.3994 15.4085 78.3994 16.2197C78.3994 16.9945 78.5156 17.5618 78.748 17.9219C78.985 18.2819 79.3587 18.4619 79.8691 18.4619C80.3841 18.4619 80.7624 18.2819 81.0039 17.9219C81.2454 17.5618 81.3662 16.9717 81.3662 16.1514C81.3662 15.4222 81.2523 14.8776 81.0244 14.5176C80.7965 14.1576 80.4342 13.9775 79.9375 13.9775ZM92.3516 13.6289V12.5078L95.9336 12.4395V13.6289L95.1885 13.7998L93.3291 20H91.1895L90.082 16.4316L89.8291 15.3379L89.4805 16.8623L88.4551 20H86.3291L84.4219 13.8271L83.8066 13.6289V12.5078L87.4775 12.4395V13.6289L86.5957 13.7998L87.5186 17.7305L89.002 12.6787L90.8477 12.3711L92.3789 17.7305L93.1992 13.8408L92.3516 13.6289Z" fill="black"/>
<path d="M21.8182 2.22222H16.8736C16.2607 1.52322 15.5097 0.963957 14.6698 0.581039C13.83 0.198121 12.9202 0.000183105 12 0.000183105C11.0798 0.000183105 10.17 0.198121 9.33018 0.581039C8.49032 0.963957 7.73932 1.52322 7.12636 2.22222H2.18182C1.60316 2.22222 1.04821 2.45635 0.63904 2.8731C0.229869 3.28985 0 3.85508 0 4.44446V27.7779C0 28.3673 0.229869 28.9326 0.63904 29.3493C1.04821 29.7661 1.60316 30.0002 2.18182 30.0002H21.8182C22.3968 30.0002 22.9518 29.7661 23.361 29.3493C23.7701 28.9326 24 28.3673 24 27.7779V4.44446C24 3.85508 23.7701 3.28985 23.361 2.8731C22.9518 2.45635 22.3968 2.22222 21.8182 2.22222ZM12 2.22222C13.1573 2.22222 14.2672 2.69047 15.0856 3.52398C15.9039 4.35748 16.3636 5.48795 16.3636 6.66669H7.63636C7.63636 5.48795 8.0961 4.35748 8.91444 3.52398C9.73278 2.69047 10.8427 2.22222 12 2.22222ZM21.8182 27.7779H2.18182V4.44446H5.82955C5.58139 5.15809 5.45457 5.90962 5.45455 6.66669V7.77781C5.45455 8.0725 5.56948 8.35512 5.77407 8.56349C5.97865 8.77187 6.25613 8.88893 6.54545 8.88893H17.4545C17.7439 8.88893 18.0214 8.77187 18.2259 8.56349C18.4305 8.35512 18.5455 8.0725 18.5455 7.77781V6.66669C18.5454 5.90962 18.4186 5.15809 18.1705 4.44446H21.8182V27.7779Z" fill="black"/>
<path d="M20.7552 13.5342L19.5139 12.2535C19.3588 12.0911 19.1488 12 18.93 12C18.7111 12 18.5011 12.0911 18.346 12.2535L13.5514 17.2176L13.5457 17.2116L11.6506 15.2943C11.4951 15.1326 11.2851 15.0422 11.0663 15.0428C10.8475 15.0434 10.6379 15.135 10.4833 15.2976L9.24193 16.6022C9.08701 16.7653 9 16.9863 9 17.2168C9 17.4472 9.08701 17.6682 9.24193 17.8313L12.9463 21.7452C13.0231 21.826 13.1143 21.8901 13.2148 21.9338C13.3152 21.9775 13.4228 22 13.5315 22C13.6402 22 13.7478 21.9775 13.8482 21.9338C13.9486 21.8901 14.0399 21.826 14.1167 21.7452L20.7578 14.7665C20.8348 14.6855 20.8958 14.5893 20.9374 14.4835C20.979 14.3777 21.0002 14.2643 21 14.1498C20.9998 14.0353 20.978 13.922 20.936 13.8163C20.894 13.7107 20.8326 13.6148 20.7552 13.5342ZM13.5317 21.1315L9.82742 17.2176L11.0687 15.9129L11.0744 15.9189L12.9695 17.8362C13.1245 17.9975 13.3338 18.088 13.5519 18.088C13.77 18.088 13.9793 17.9975 14.1343 17.8362L18.9336 12.8688L20.1718 14.1517L13.5317 21.1315Z" fill="black"/>
</svg>
