<svg width="142" height="25" viewBox="0 0 142 25" fill="none" xmlns="http://www.w3.org/2000/svg">
<path d="M8.064 24V2.24H11.744V24H8.064ZM0.768 4.96V1.6H19.04V4.96H0.768ZM24.2278 24.32C22.8411 24.32 21.5824 23.968 20.4518 23.264C19.3424 22.56 18.4571 21.6107 17.7958 20.416C17.1558 19.2 16.8358 17.8453 16.8358 16.352C16.8358 14.8373 17.1558 13.4827 17.7958 12.288C18.4571 11.072 19.3424 10.112 20.4518 9.408C21.5824 8.68267 22.8411 8.32 24.2278 8.32C25.4011 8.32 26.4358 8.576 27.3318 9.088C28.2491 9.57867 28.9744 10.2613 29.5078 11.136C30.0411 12.0107 30.3078 13.0027 30.3078 14.112V18.528C30.3078 19.6373 30.0411 20.6293 29.5078 21.504C28.9958 22.3787 28.2811 23.072 27.3638 23.584C26.4464 24.0747 25.4011 24.32 24.2278 24.32ZM24.8038 20.992C26.1051 20.992 27.1504 20.5547 27.9398 19.68C28.7504 18.8053 29.1558 17.6853 29.1558 16.32C29.1558 15.4027 28.9744 14.592 28.6118 13.888C28.2491 13.184 27.7371 12.64 27.0758 12.256C26.4358 11.8507 25.6784 11.648 24.8038 11.648C23.9504 11.648 23.1931 11.8507 22.5318 12.256C21.8918 12.64 21.3798 13.184 20.9958 13.888C20.6331 14.592 20.4518 15.4027 20.4518 16.32C20.4518 17.2373 20.6331 18.048 20.9958 18.752C21.3798 19.456 21.8918 20.0107 22.5318 20.416C23.1931 20.8 23.9504 20.992 24.8038 20.992ZM28.9318 24V19.872L29.5398 16.128L28.9318 12.416V8.64H32.4518V24H28.9318ZM41.3823 24.32C40.5289 24.32 39.7076 24.2133 38.9183 24C38.1289 23.7653 37.4036 23.4453 36.7423 23.04C36.0809 22.6133 35.5049 22.1013 35.0143 21.504L37.2543 19.264C37.7876 19.8827 38.3956 20.352 39.0783 20.672C39.7823 20.9707 40.5716 21.12 41.4463 21.12C42.2356 21.12 42.8329 21.0027 43.2383 20.768C43.6436 20.5333 43.8463 20.192 43.8463 19.744C43.8463 19.2747 43.6543 18.912 43.2703 18.656C42.8863 18.4 42.3849 18.1867 41.7663 18.016C41.1689 17.824 40.5289 17.632 39.8463 17.44C39.1849 17.248 38.5449 16.992 37.9263 16.672C37.3289 16.3307 36.8383 15.872 36.4543 15.296C36.0703 14.72 35.8783 13.9733 35.8783 13.056C35.8783 12.0747 36.1023 11.232 36.5503 10.528C37.0196 9.824 37.6703 9.28 38.5023 8.896C39.3556 8.512 40.3689 8.32 41.5423 8.32C42.7796 8.32 43.8676 8.544 44.8063 8.992C45.7663 9.41867 46.5663 10.0693 47.2063 10.944L44.9663 13.184C44.5183 12.6293 44.0063 12.2133 43.4303 11.936C42.8543 11.6587 42.1929 11.52 41.4463 11.52C40.7423 11.52 40.1983 11.6267 39.8143 11.84C39.4303 12.0533 39.2383 12.3627 39.2383 12.768C39.2383 13.1947 39.4303 13.5253 39.8143 13.76C40.1983 13.9947 40.6889 14.1973 41.2863 14.368C41.9049 14.5387 42.5449 14.7307 43.2063 14.944C43.8889 15.136 44.5289 15.4133 45.1263 15.776C45.7449 16.1173 46.2463 16.5867 46.6303 17.184C47.0143 17.76 47.2063 18.5173 47.2063 19.456C47.2063 20.9493 46.6836 22.1333 45.6383 23.008C44.5929 23.8827 43.1743 24.32 41.3823 24.32ZM59.8683 24L53.3723 16.16L59.8363 8.64H64.0283L56.6042 17.088L56.7643 15.072L64.3483 24H59.8683ZM50.1083 24V0.959999H53.6283V24H50.1083Z" fill="white"/>
<path d="M73.0823 24V1.408H78.1063V24H73.0823ZM76.9223 15.136V10.816H88.2183V15.136H76.9223ZM76.9223 5.728V1.408H88.7303V5.728H76.9223ZM91.5093 24V0.768H96.4053V24H91.5093ZM107.341 24.352C105.741 24.352 104.29 24 102.989 23.296C101.709 22.5707 100.696 21.5893 99.949 20.352C99.2023 19.1147 98.829 17.728 98.829 16.192C98.829 14.656 99.2023 13.28 99.949 12.064C100.696 10.848 101.709 9.888 102.989 9.184C104.269 8.45867 105.72 8.096 107.341 8.096C108.962 8.096 110.413 8.448 111.693 9.152C112.973 9.856 113.986 10.8267 114.733 12.064C115.48 13.28 115.853 14.656 115.853 16.192C115.853 17.728 115.48 19.1147 114.733 20.352C113.986 21.5893 112.973 22.5707 111.693 23.296C110.413 24 108.962 24.352 107.341 24.352ZM107.341 19.904C108.045 19.904 108.664 19.7547 109.197 19.456C109.73 19.136 110.136 18.6987 110.413 18.144C110.712 17.568 110.861 16.9173 110.861 16.192C110.861 15.4667 110.712 14.8373 110.413 14.304C110.114 13.7493 109.698 13.3227 109.165 13.024C108.653 12.704 108.045 12.544 107.341 12.544C106.658 12.544 106.05 12.704 105.517 13.024C104.984 13.3227 104.568 13.7493 104.269 14.304C103.97 14.8587 103.821 15.4987 103.821 16.224C103.821 16.928 103.97 17.568 104.269 18.144C104.568 18.6987 104.984 19.136 105.517 19.456C106.05 19.7547 106.658 19.904 107.341 19.904ZM121.786 24L116.41 8.448H121.21L124.538 19.744L123.13 19.776L126.81 8.448H130.778L134.49 19.776L133.05 19.744L136.41 8.448H141.21L135.834 24H131.834L128.218 13.248H129.434L125.754 24H121.786Z" fill="#FFC600"/>
</svg>
