<svg width="268" height="323" viewBox="0 0 268 323" fill="none" xmlns="http://www.w3.org/2000/svg">
<g clip-path="url(#clip0_6_536)">
<path d="M254.482 0.410202H36.2028C28.9646 0.410202 23.0968 6.26419 23.0968 13.4855V184.856C23.0968 192.077 28.9646 197.931 36.2028 197.931H254.482C261.721 197.931 267.588 192.077 267.588 184.856V13.4855C267.588 6.26419 261.721 0.410202 254.482 0.410202Z" fill="white"/>
<path d="M254.482 198.342H36.2028C32.6188 198.338 29.1827 196.916 26.6485 194.388C24.1142 191.859 22.6888 188.431 22.6849 184.856V13.4862C22.6888 9.91063 24.1142 6.48261 26.6485 3.95429C29.1827 1.42597 32.6188 0.00386726 36.2028 0L254.482 0C258.066 0.00396622 261.502 1.4261 264.037 3.9544C266.571 6.4827 267.996 9.91066 268 13.4862V184.856C267.996 188.432 266.571 191.86 264.037 194.388C261.502 196.916 258.066 198.338 254.482 198.342ZM36.2028 0.820786C32.837 0.824653 29.6103 2.1603 27.2304 4.5347C24.8504 6.9091 23.5118 10.1284 23.508 13.4862V184.856C23.5119 188.214 24.8506 191.433 27.2305 193.808C29.6104 196.182 32.8371 197.517 36.2028 197.521H254.482C257.848 197.518 261.075 196.182 263.455 193.808C265.835 191.433 267.174 188.214 267.177 184.856V13.4862C267.174 10.1283 265.835 6.90901 263.455 4.53459C261.075 2.16016 257.848 0.824554 254.482 0.820786H36.2028Z" fill="#292A2E"/>
<path opacity="0.2" d="M248.426 35.919H235.024C232.199 35.919 229.909 38.2037 229.909 41.0221V54.3933C229.909 57.2116 232.199 59.4963 235.024 59.4963H248.426C251.251 59.4963 253.541 57.2116 253.541 54.3933V41.0221C253.541 38.2037 251.251 35.919 248.426 35.919Z" fill="#F8A435"/>
<path opacity="0.2" d="M248.843 65.7H235.543C232.689 65.7 230.376 68.0076 230.376 70.8543V84.1229C230.376 86.9695 232.689 89.2772 235.543 89.2772H248.843C251.696 89.2772 254.009 86.9695 254.009 84.1229V70.8543C254.009 68.0076 251.696 65.7 248.843 65.7Z" fill="#F8A435"/>
<path opacity="0.2" d="M248.843 98.8685H235.543C232.689 98.8685 230.376 101.176 230.376 104.023V117.291C230.376 120.138 232.689 122.446 235.543 122.446H248.843C251.696 122.446 254.009 120.138 254.009 117.291V104.023C254.009 101.176 251.696 98.8685 248.843 98.8685Z" fill="#F8A435"/>
<path opacity="0.2" d="M248.375 130.34H235.075C232.222 130.34 229.909 132.648 229.909 135.494V148.763C229.909 151.61 232.222 153.917 235.075 153.917H248.375C251.228 153.917 253.541 151.61 253.541 148.763V135.494C253.541 132.648 251.228 130.34 248.375 130.34Z" fill="#F8A435"/>
<g opacity="0.15">
<path opacity="0.15" d="M152.059 35.919H138.656C135.831 35.919 133.541 38.2037 133.541 41.0221V54.3933C133.541 57.2116 135.831 59.4963 138.656 59.4963H152.059C154.884 59.4963 157.174 57.2116 157.174 54.3933V41.0221C157.174 38.2037 154.884 35.919 152.059 35.919Z" fill="#F8A435"/>
<path opacity="0.15" d="M119.936 35.919H106.534C103.709 35.919 101.419 38.2037 101.419 41.0221V54.3933C101.419 57.2116 103.709 59.4963 106.534 59.4963H119.936C122.761 59.4963 125.051 57.2116 125.051 54.3933V41.0221C125.051 38.2037 122.761 35.919 119.936 35.919Z" fill="#F8A435"/>
<path opacity="0.15" d="M88.2812 35.919H74.8786C72.0536 35.919 69.7636 38.2037 69.7636 41.0221V54.3933C69.7636 57.2116 72.0536 59.4963 74.8786 59.4963H88.2812C91.1061 59.4963 93.3962 57.2116 93.3962 54.3933V41.0221C93.3962 38.2037 91.1061 35.919 88.2812 35.919Z" fill="#F8A435"/>
<path opacity="0.15" d="M56.1586 35.919H42.756C39.931 35.919 37.6409 38.2037 37.6409 41.0221V54.3933C37.6409 57.2116 39.931 59.4963 42.756 59.4963H56.1586C58.9835 59.4963 61.2736 57.2116 61.2736 54.3933V41.0221C61.2736 38.2037 58.9835 35.919 56.1586 35.919Z" fill="#F8A435"/>
<path opacity="0.15" d="M184.181 35.919H170.779C167.954 35.919 165.664 38.2037 165.664 41.0221V54.3933C165.664 57.2116 167.954 59.4963 170.779 59.4963H184.181C187.006 59.4963 189.296 57.2116 189.296 54.3933V41.0221C189.296 38.2037 187.006 35.919 184.181 35.919Z" fill="#F8A435"/>
<path opacity="0.15" d="M216.304 35.919H202.901C200.076 35.919 197.786 38.2037 197.786 41.0221V54.3933C197.786 57.2116 200.076 59.4963 202.901 59.4963H216.304C219.129 59.4963 221.419 57.2116 221.419 54.3933V41.0221C221.419 38.2037 219.129 35.919 216.304 35.919Z" fill="#F8A435"/>
<path opacity="0.15" d="M152.475 65.7H139.175C136.322 65.7 134.008 68.0076 134.008 70.8543V84.1229C134.008 86.9695 136.322 89.2772 139.175 89.2772H152.475C155.328 89.2772 157.641 86.9695 157.641 84.1229V70.8543C157.641 68.0076 155.328 65.7 152.475 65.7Z" fill="#F8A435"/>
<path opacity="0.15" d="M184.597 65.7H171.298C168.444 65.7 166.131 68.0076 166.131 70.8543V84.1229C166.131 86.9695 168.444 89.2772 171.298 89.2772H184.597C187.451 89.2772 189.764 86.9695 189.764 84.1229V70.8543C189.764 68.0076 187.451 65.7 184.597 65.7Z" fill="#F8A435"/>
<path opacity="0.15" d="M216.72 65.7H203.42C200.567 65.7 198.254 68.0076 198.254 70.8543V84.1229C198.254 86.9695 200.567 89.2772 203.42 89.2772H216.72C219.573 89.2772 221.886 86.9695 221.886 84.1229V70.8543C221.886 68.0076 219.573 65.7 216.72 65.7Z" fill="#F8A435"/>
<path opacity="0.15" d="M56.1071 65.7H42.8074C39.954 65.7 37.6409 68.0076 37.6409 70.8543V84.1229C37.6409 86.9695 39.954 89.2772 42.8074 89.2772H56.1071C58.9605 89.2772 61.2736 86.9695 61.2736 84.1229V70.8543C61.2736 68.0076 58.9605 65.7 56.1071 65.7Z" fill="#F8A435"/>
<path opacity="0.15" d="M88.2297 65.7H74.93C72.0767 65.7 69.7636 68.0076 69.7636 70.8543V84.1229C69.7636 86.9695 72.0767 89.2772 74.93 89.2772H88.2297C91.0831 89.2772 93.3962 86.9695 93.3962 84.1229V70.8543C93.3962 68.0076 91.0831 65.7 88.2297 65.7Z" fill="#F8A435"/>
<path opacity="0.15" d="M120.352 65.7H107.052C104.199 65.7 101.886 68.0076 101.886 70.8543V84.1229C101.886 86.9695 104.199 89.2772 107.052 89.2772H120.352C123.205 89.2772 125.518 86.9695 125.518 84.1229V70.8543C125.518 68.0076 123.205 65.7 120.352 65.7Z" fill="#F8A435"/>
<path opacity="0.15" d="M152.475 98.8685H139.175C136.322 98.8685 134.008 101.176 134.008 104.023V117.291C134.008 120.138 136.322 122.446 139.175 122.446H152.475C155.328 122.446 157.641 120.138 157.641 117.291V104.023C157.641 101.176 155.328 98.8685 152.475 98.8685Z" fill="#F8A435"/>
<path opacity="0.15" d="M184.597 98.8685H171.298C168.444 98.8685 166.131 101.176 166.131 104.023V117.291C166.131 120.138 168.444 122.446 171.298 122.446H184.597C187.451 122.446 189.764 120.138 189.764 117.291V104.023C189.764 101.176 187.451 98.8685 184.597 98.8685Z" fill="#F8A435"/>
<path opacity="0.15" d="M216.72 98.8685H203.42C200.567 98.8685 198.254 101.176 198.254 104.023V117.291C198.254 120.138 200.567 122.446 203.42 122.446H216.72C219.573 122.446 221.886 120.138 221.886 117.291V104.023C221.886 101.176 219.573 98.8685 216.72 98.8685Z" fill="#F8A435"/>
<path opacity="0.15" d="M56.1071 98.8685H42.8074C39.954 98.8685 37.6409 101.176 37.6409 104.023V117.291C37.6409 120.138 39.954 122.446 42.8074 122.446H56.1071C58.9605 122.446 61.2736 120.138 61.2736 117.291V104.023C61.2736 101.176 58.9605 98.8685 56.1071 98.8685Z" fill="#F8A435"/>
<path opacity="0.15" d="M88.2297 98.8685H74.93C72.0767 98.8685 69.7636 101.176 69.7636 104.023V117.291C69.7636 120.138 72.0767 122.446 74.93 122.446H88.2297C91.0831 122.446 93.3962 120.138 93.3962 117.291V104.023C93.3962 101.176 91.0831 98.8685 88.2297 98.8685Z" fill="#F8A435"/>
<path opacity="0.15" d="M120.352 98.8685H107.052C104.199 98.8685 101.886 101.176 101.886 104.023V117.291C101.886 120.138 104.199 122.446 107.052 122.446H120.352C123.205 122.446 125.518 120.138 125.518 117.291V104.023C125.518 101.176 123.205 98.8685 120.352 98.8685Z" fill="#F8A435"/>
<path opacity="0.15" d="M152.475 130.806H139.175C136.322 130.806 134.008 133.114 134.008 135.96V149.229C134.008 152.076 136.322 154.383 139.175 154.383H152.475C155.328 154.383 157.641 152.076 157.641 149.229V135.96C157.641 133.114 155.328 130.806 152.475 130.806Z" fill="#F8A435"/>
<path opacity="0.15" d="M184.13 130.34H170.83C167.977 130.34 165.664 132.648 165.664 135.494V148.763C165.664 151.61 167.977 153.917 170.83 153.917H184.13C186.983 153.917 189.296 151.61 189.296 148.763V135.494C189.296 132.648 186.983 130.34 184.13 130.34Z" fill="#F8A435"/>
<path opacity="0.15" d="M216.252 130.34H202.953C200.099 130.34 197.786 132.648 197.786 135.494V148.763C197.786 151.61 200.099 153.917 202.953 153.917H216.252C219.106 153.917 221.419 151.61 221.419 148.763V135.494C221.419 132.648 219.106 130.34 216.252 130.34Z" fill="#F8A435"/>
<path opacity="0.15" d="M56.1071 130.806H42.8074C39.954 130.806 37.6409 133.114 37.6409 135.96V149.229C37.6409 152.076 39.954 154.383 42.8074 154.383H56.1071C58.9605 154.383 61.2736 152.076 61.2736 149.229V135.96C61.2736 133.114 58.9605 130.806 56.1071 130.806Z" fill="#F8A435"/>
<path opacity="0.15" d="M88.2297 130.806H74.93C72.0767 130.806 69.7636 133.114 69.7636 135.96V149.229C69.7636 152.076 72.0767 154.383 74.93 154.383H88.2297C91.0831 154.383 93.3962 152.076 93.3962 149.229V135.96C93.3962 133.114 91.0831 130.806 88.2297 130.806Z" fill="#F8A435"/>
<path opacity="0.15" d="M120.352 130.806H107.052C104.199 130.806 101.886 133.114 101.886 135.96V149.229C101.886 152.076 104.199 154.383 107.052 154.383H120.352C123.205 154.383 125.518 152.076 125.518 149.229V135.96C125.518 133.114 123.205 130.806 120.352 130.806Z" fill="#F8A435"/>
<path opacity="0.15" d="M152.008 159.734H138.708C135.854 159.734 133.541 162.042 133.541 164.889V178.157C133.541 181.004 135.854 183.312 138.708 183.312H152.008C154.861 183.312 157.174 181.004 157.174 178.157V164.889C157.174 162.042 154.861 159.734 152.008 159.734Z" fill="#F8A435"/>
<path opacity="0.15" d="M55.6396 159.734H42.3399C39.4865 159.734 37.1734 162.042 37.1734 164.889V178.157C37.1734 181.004 39.4865 183.312 42.3399 183.312H55.6396C58.493 183.312 60.8061 181.004 60.8061 178.157V164.889C60.8061 162.042 58.493 159.734 55.6396 159.734Z" fill="#F8A435"/>
<path opacity="0.15" d="M87.7622 159.734H74.4625C71.6092 159.734 69.2961 162.042 69.2961 164.889V178.157C69.2961 181.004 71.6092 183.312 74.4625 183.312H87.7622C90.6156 183.312 92.9287 181.004 92.9287 178.157V164.889C92.9287 162.042 90.6156 159.734 87.7622 159.734Z" fill="#F8A435"/>
<path opacity="0.15" d="M119.885 159.734H106.585C103.732 159.734 101.419 162.042 101.419 164.889V178.157C101.419 181.004 103.732 183.312 106.585 183.312H119.885C122.738 183.312 125.051 181.004 125.051 178.157V164.889C125.051 162.042 122.738 159.734 119.885 159.734Z" fill="#F8A435"/>
</g>
<path d="M267.588 13.4862V21.869H23.0979V13.4862C23.0974 11.769 23.436 10.0685 24.0944 8.4818C24.7528 6.89514 25.718 5.45342 26.9349 4.23897C28.1519 3.02453 29.5967 2.06116 31.1869 1.40389C32.7771 0.746622 34.4815 0.408325 36.2028 0.408325H254.483C256.204 0.408522 257.908 0.746947 259.499 1.40428C261.089 2.06161 262.534 3.02497 263.751 4.23937C264.967 5.45376 265.933 6.8954 266.591 8.48198C267.25 10.0686 267.589 11.769 267.588 13.4862V13.4862Z" fill="#292A2E"/>
<path d="M119.587 162.343H106.883C105.309 162.343 104.033 163.616 104.033 165.186V177.86C104.033 179.43 105.309 180.704 106.883 180.704H119.587C121.161 180.704 122.437 179.43 122.437 177.86V165.186C122.437 163.616 121.161 162.343 119.587 162.343Z" fill="white"/>
<path d="M54.7152 123.602L39.0314 120.771C38.5868 120.69 38.1925 120.437 37.935 120.067C37.6776 119.696 37.5782 119.239 37.6586 118.796L40.0839 105.425L44.9113 102.218L58.16 104.611C58.6045 104.691 58.9988 104.944 59.2563 105.314C59.5137 105.685 59.6132 106.142 59.5328 106.585L56.6944 122.232C56.6546 122.452 56.5719 122.662 56.4509 122.849C56.3299 123.037 56.173 123.199 55.9892 123.326C55.8054 123.453 55.5983 123.543 55.3797 123.59C55.1611 123.638 54.9353 123.642 54.7152 123.602Z" fill="#FFC600"/>
<path opacity="0.29" d="M44.9113 102.218L40.0839 105.425L44.2065 106.241L44.9113 102.218Z" fill="#FFFFFA"/>
<g opacity="0.88">
<path opacity="0.88" d="M55.9412 114.479C55.9253 114.479 55.9094 114.478 55.8938 114.475L41.2179 111.767C41.1559 111.756 41.101 111.72 41.0653 111.669C41.0295 111.617 41.0159 111.553 41.0273 111.491C41.0388 111.429 41.0744 111.374 41.1263 111.339C41.1783 111.303 41.2423 111.29 41.3043 111.301L55.9802 114.009C56.0379 114.019 56.0896 114.051 56.1253 114.098C56.161 114.144 56.1781 114.202 56.1734 114.261C56.1688 114.319 56.1426 114.374 56.1 114.414C56.0574 114.454 56.0013 114.477 55.9427 114.479H55.9412Z" fill="white"/>
<path opacity="0.88" d="M55.4151 117.55C55.3991 117.55 55.3831 117.549 55.3674 117.546L40.6918 114.838C40.6601 114.834 40.6297 114.823 40.6023 114.806C40.5749 114.79 40.5512 114.768 40.5325 114.742C40.5138 114.716 40.5006 114.686 40.4936 114.655C40.4866 114.624 40.486 114.592 40.4919 114.56C40.4977 114.529 40.5098 114.499 40.5275 114.472C40.5452 114.446 40.5681 114.423 40.5948 114.405C40.6215 114.388 40.6516 114.376 40.6831 114.37C40.7146 114.364 40.7469 114.365 40.7782 114.372L55.4537 117.079C55.5119 117.09 55.564 117.121 55.6001 117.168C55.6361 117.215 55.6535 117.273 55.6488 117.332C55.6441 117.39 55.6177 117.445 55.5747 117.486C55.5317 117.526 55.4752 117.549 55.4162 117.55H55.4151Z" fill="white"/>
<path opacity="0.88" d="M46.8046 118.799C46.7887 118.8 46.7728 118.798 46.7573 118.796L40.2476 117.595C40.2159 117.59 40.1855 117.579 40.1581 117.562C40.1307 117.546 40.107 117.524 40.0883 117.498C40.0696 117.472 40.0564 117.442 40.0494 117.411C40.0424 117.38 40.0418 117.348 40.0476 117.316C40.0535 117.285 40.0656 117.255 40.0833 117.228C40.101 117.202 40.1239 117.179 40.1506 117.161C40.1773 117.144 40.2074 117.132 40.2389 117.126C40.2704 117.12 40.3027 117.121 40.334 117.128L46.8436 118.329C46.9013 118.34 46.953 118.372 46.9887 118.418C47.0244 118.465 47.0415 118.523 47.0369 118.581C47.0322 118.639 47.006 118.694 46.9634 118.734C46.9208 118.775 46.8648 118.798 46.8061 118.799H46.8046Z" fill="white"/>
</g>
<path d="M56.011 111.983C55.9529 111.983 55.895 111.978 55.8379 111.967L52.6623 111.39C52.537 111.367 52.4175 111.32 52.3106 111.251C52.2037 111.182 52.1115 111.092 52.0394 110.988C51.9672 110.883 51.9165 110.765 51.8901 110.641C51.8638 110.517 51.8623 110.388 51.8858 110.264L52.4194 106.9C52.4656 106.65 52.6083 106.429 52.8166 106.283C53.0249 106.138 53.2823 106.08 53.5331 106.121L56.7184 106.665C56.8448 106.686 56.9656 106.732 57.0739 106.801C57.1822 106.869 57.2758 106.958 57.3492 107.063C57.4226 107.168 57.4743 107.286 57.5014 107.411C57.5285 107.536 57.5304 107.665 57.507 107.791L56.9636 111.192C56.9221 111.414 56.8042 111.614 56.6302 111.759C56.4563 111.903 56.2373 111.983 56.011 111.983ZM53.3712 106.482C53.2334 106.483 53.0999 106.531 52.9937 106.619C52.8876 106.706 52.8153 106.828 52.7892 106.963L52.2556 110.327C52.2406 110.404 52.241 110.483 52.2567 110.559C52.2725 110.636 52.3033 110.709 52.3474 110.773C52.3915 110.838 52.4481 110.893 52.5137 110.936C52.5794 110.978 52.6529 111.007 52.7299 111.021L55.9055 111.599C56.059 111.626 56.217 111.592 56.3455 111.504C56.4739 111.415 56.5625 111.281 56.5923 111.128L57.1364 107.724C57.1508 107.647 57.1498 107.568 57.1334 107.492C57.1169 107.415 57.0854 107.343 57.0406 107.278C56.9958 107.214 56.9386 107.159 56.8724 107.117C56.8062 107.075 56.7323 107.047 56.655 107.034L53.4696 106.49C53.4371 106.485 53.4042 106.482 53.3712 106.482V106.482Z" fill="white"/>
<path d="M109.457 177.583C109.424 177.583 109.391 177.583 109.357 177.579C109.205 177.565 109.056 177.519 108.922 177.445C108.788 177.371 108.67 177.27 108.578 177.148L105.241 172.77C105.064 172.537 104.986 172.244 105.026 171.954C105.066 171.664 105.219 171.402 105.452 171.225C105.686 171.048 105.98 170.971 106.27 171.01C106.561 171.05 106.823 171.203 107.001 171.436L109.605 174.853L119.601 165.75C119.708 165.652 119.834 165.577 119.97 165.528C120.107 165.478 120.251 165.456 120.396 165.463C120.541 165.47 120.684 165.505 120.815 165.566C120.947 165.628 121.064 165.714 121.162 165.821C121.26 165.928 121.336 166.053 121.385 166.189C121.435 166.326 121.457 166.47 121.45 166.615C121.443 166.759 121.408 166.901 121.347 167.032C121.285 167.164 121.198 167.281 121.091 167.379L110.202 177.294C109.998 177.48 109.733 177.583 109.457 177.583Z" fill="#FFC600"/>
<path d="M254.772 51.2712L241.552 60.153C241.366 60.278 241.158 60.3652 240.938 60.4097C240.719 60.4542 240.493 60.4551 240.273 60.4123C240.054 60.3695 239.844 60.284 239.658 60.1605C239.471 60.037 239.311 59.878 239.186 59.6926L231.579 48.4226L232.797 42.7659L243.966 35.2627C244.152 35.1379 244.36 35.0508 244.58 35.0064C244.799 34.9619 245.025 34.9611 245.245 35.0038C245.464 35.0466 245.674 35.1321 245.86 35.2555C246.047 35.379 246.207 35.5378 246.332 35.7231L255.235 48.9122C255.36 49.0974 255.447 49.3053 255.491 49.5241C255.535 49.7428 255.536 49.9682 255.493 50.1873C255.45 50.4063 255.365 50.6148 255.241 50.8008C255.117 50.9868 254.958 51.1466 254.772 51.2712V51.2712Z" fill="#474646"/>
<path opacity="0.29" d="M232.799 42.7655L231.58 48.4226L235.105 46.139L232.799 42.7655Z" fill="#FFFFFA"/>
<g opacity="0.88">
<path opacity="0.88" d="M249.274 43.8793C249.263 43.8906 249.25 43.9008 249.237 43.9096L236.826 52.1789C236.773 52.21 236.711 52.2199 236.652 52.2064C236.592 52.1929 236.54 52.1571 236.506 52.1064C236.473 52.0558 236.46 51.9941 236.47 51.9341C236.481 51.8742 236.514 51.8206 236.563 51.7844L248.974 43.5151C249.023 43.4829 249.083 43.4699 249.141 43.4787C249.199 43.4874 249.251 43.5172 249.289 43.5625C249.326 43.6077 249.345 43.665 249.343 43.7235C249.34 43.782 249.316 43.8375 249.275 43.8793H249.274Z" fill="white"/>
<path opacity="0.88" d="M251.044 46.4465C251.032 46.4579 251.02 46.468 251.006 46.4769L238.595 54.7462C238.542 54.7773 238.48 54.7871 238.421 54.7736C238.361 54.7601 238.309 54.7244 238.275 54.6737C238.242 54.623 238.229 54.5613 238.239 54.5014C238.25 54.4414 238.283 54.3878 238.332 54.3517L250.743 46.0824C250.792 46.0502 250.852 46.0372 250.91 46.0459C250.968 46.0547 251.02 46.0845 251.058 46.1297C251.095 46.1749 251.114 46.2323 251.112 46.2908C251.109 46.3493 251.085 46.4047 251.044 46.4465V46.4465Z" fill="white"/>
<path opacity="0.88" d="M245.746 53.3324C245.734 53.3437 245.722 53.3539 245.708 53.3627L240.205 57.0306C240.179 57.0497 240.15 57.0633 240.119 57.0707C240.087 57.078 240.055 57.079 240.023 57.0734C239.991 57.0679 239.961 57.0559 239.934 57.0383C239.907 57.0208 239.884 56.9979 239.866 56.9711C239.848 56.9444 239.836 56.9143 239.83 56.8827C239.825 56.8511 239.825 56.8186 239.832 56.7873C239.84 56.756 239.853 56.7264 239.872 56.7004C239.891 56.6744 239.915 56.6525 239.943 56.6361L245.448 52.9682C245.497 52.936 245.556 52.923 245.614 52.9318C245.672 52.9405 245.725 52.9703 245.762 53.0155C245.799 53.0607 245.818 53.1181 245.816 53.1766C245.813 53.2351 245.789 53.2906 245.748 53.3324H245.746Z" fill="white"/>
</g>
<path d="M257.8 323H13.5701C13.5004 323 13.4335 322.972 13.3842 322.923C13.3349 322.874 13.3072 322.807 13.3072 322.738C13.3072 322.668 13.3349 322.602 13.3842 322.552C13.4335 322.503 13.5004 322.476 13.5701 322.476H257.8C257.87 322.476 257.937 322.503 257.986 322.552C258.036 322.602 258.063 322.668 258.063 322.738C258.063 322.807 258.036 322.874 257.986 322.923C257.937 322.972 257.87 323 257.8 323Z" fill="#292A2E"/>
<path d="M213.304 306.453C213.304 306.453 211.609 315.219 203.38 315.709C195.151 316.199 196.936 322.737 196.936 322.737H228.38V307.064L213.304 306.453Z" fill="#FFC600"/>
<path d="M223.003 146.517C223.003 146.517 222.904 143.882 222.925 149.86C223.003 172.161 224.142 197.633 225.089 212.539C226.612 236.501 229.767 312.048 229.767 312.048L207.603 311.875L189.08 145.611L223.003 146.517Z" fill="#474646"/>
<path d="M199.229 173.108C199.229 173.108 198.372 189.291 198.215 193.091C197.847 201.877 197.518 211.032 197.518 221.346L194.463 194.249C194.463 194.249 196.845 185.775 199.229 173.108Z" fill="#0A0A0A"/>
<path d="M172.766 306.453C172.766 306.453 171.071 315.219 162.842 315.709C154.614 316.199 156.399 322.737 156.399 322.737H187.842V307.064L172.766 306.453Z" fill="#FFC600"/>
<path d="M166.515 148.249C166.515 148.249 164.31 225.216 164.578 228.942L167.756 311.47L190.33 311.844L192.104 225.182C192.104 225.182 192.375 201.276 198.164 179.077C201.127 167.683 202.909 156.017 203.484 144.261V144.261L166.515 148.249Z" fill="#474646"/>
<path d="M223.227 146.515L223.294 146.519C223.294 146.519 223.246 145.219 223.227 146.515Z" fill="#333333"/>
<path d="M180.329 80.9506C180.397 80.942 181.14 93.247 195.468 92.1741C205.388 91.4328 208.926 80.933 209.152 80.933C208.082 80.7082 206.281 80.3767 205.806 80.1238C204.244 79.2866 202.02 78.4152 201.516 75.389C201.226 73.6448 201.718 64.7218 201.567 62.957L186.632 66.3477C186.845 70.0747 188.334 78.7149 183.115 80.246C182.247 80.4969 181.311 80.73 180.329 80.9506Z" fill="#E98862"/>
<path d="M187.053 72.1606C193.066 72.6236 200.785 70.0781 202.238 62.0725L203.55 54.8492C205.003 46.844 201.967 39.5929 194.412 38.2278C186.857 36.8623 180.03 42.3317 178.578 50.3369L177.998 53.5346C177.817 54.6361 177.712 55.7485 177.684 56.8642C177.587 59.8125 177.45 64.2966 178.913 67.5903C180.293 70.7 183.211 71.865 187.053 72.1606Z" fill="#E98862"/>
<path d="M200.538 37.8176C198.151 37.0748 195.675 36.6545 193.176 36.5679C193.094 36.1324 192.908 35.7231 192.633 35.3749C192.358 35.0266 192.004 34.7496 191.599 34.5674C190.278 34.0527 188.664 34.8817 187.59 36.4798C187.03 35.5242 186.154 34.7929 185.112 34.4116C182.154 33.493 182.007 37.7318 182.007 37.7318C182.007 37.7318 177.318 33.115 177.171 39.0033C176.994 46.1277 178.306 48.2188 179.263 48.7433C181.154 49.7851 182.562 49.6087 183.31 51.1408C185.577 55.7816 183.356 68.8535 185.976 70.4902C189.994 72.9975 198.221 73.084 200.893 72.8937C201.92 72.8188 202.883 71.6316 203.315 70.6992C204.713 67.6877 207.83 60.8607 208.697 58.0372C210.301 52.8289 210.181 40.9588 200.538 37.8176Z" fill="#0C0C0C"/>
<path d="M184.184 65.8221C186.504 65.5711 188.115 62.8914 187.864 60.5774C187.613 58.2634 185.593 57.1905 183.273 57.4419L182.247 59.1221L182.191 66.0386L184.184 65.8221Z" fill="#E98862"/>
<path d="M163.607 105.942C164.033 110.936 166.106 142.096 166.515 148.248H222.98C223.299 142.699 224.731 118.437 225.941 107.587C227.095 97.2333 229.36 92.0498 227.7 88.9888C224.986 83.9861 217.572 81.0956 212.517 80.4127C209.429 79.9957 204.786 79.6968 204.786 79.6968H183.045C180.979 79.6968 168.939 80.6663 166.278 82.7109C161.624 86.2882 162.703 95.3588 163.607 105.942Z" fill="#FFC600"/>
<path d="M162.827 99.6856C162.779 99.6857 162.733 99.6674 162.698 99.6345C162.663 99.6016 162.642 99.5566 162.639 99.5088L162.184 91.5781C162.181 91.5286 162.198 91.4799 162.231 91.4428C162.264 91.4057 162.311 91.3832 162.36 91.3803C162.41 91.3781 162.458 91.3952 162.495 91.4281C162.532 91.461 162.555 91.507 162.559 91.5564L163.014 99.4874C163.015 99.512 163.012 99.5366 163.004 99.5599C162.996 99.5831 162.983 99.6045 162.967 99.6229C162.95 99.6413 162.93 99.6562 162.908 99.6669C162.886 99.6776 162.862 99.6838 162.837 99.6852L162.827 99.6856Z" fill="#0C0C0C"/>
<path d="M235.187 147.922C236.848 147.922 238.484 147.522 239.956 146.755C241.428 145.988 242.693 144.878 243.642 143.519C244.592 142.159 245.198 140.591 245.41 138.948C245.622 137.305 245.432 135.635 244.858 134.08C244.275 132.502 230.599 96.3728 227.996 89.6784L208.718 97.4705C210.182 101.234 215.486 115.501 219.746 126.994L212.668 126.227L210.439 146.675L234.072 147.862C234.442 147.902 234.814 147.922 235.187 147.922V147.922Z" fill="#FFC600"/>
<path d="M224.185 107.798L222.798 148.244L223.173 148.257L224.56 107.811L224.185 107.798Z" fill="#0C0C0C"/>
<path d="M122.34 64.6589L105.246 72.1812C104.876 72.344 104.456 72.3534 104.078 72.2074C103.701 72.0615 103.398 71.772 103.234 71.4027L96.9026 57.0808L99.3738 51.0659L113.569 44.8192C113.753 44.7385 113.95 44.6947 114.15 44.6902C114.351 44.6856 114.55 44.7205 114.737 44.7928C114.923 44.8651 115.094 44.9734 115.239 45.1115C115.384 45.2496 115.5 45.4148 115.581 45.5976L123.121 62.6524C123.284 63.0217 123.293 63.4406 123.147 63.8168C123.001 64.1931 122.71 64.496 122.34 64.6589V64.6589Z" fill="#474646"/>
<path opacity="0.29" d="M99.3737 51.0667L96.9026 57.0815L101.254 55.253L99.3737 51.0667Z" fill="#FFFFFA"/>
<g opacity="0.88">
<path opacity="0.88" d="M116.074 52.6558C116.059 52.6661 116.043 52.6749 116.027 52.682L100.659 59.3742C100.596 59.3961 100.526 59.3934 100.464 59.3665C100.403 59.3397 100.354 59.2907 100.327 59.2292C100.3 59.1678 100.297 59.0985 100.319 59.0351C100.341 58.9717 100.386 58.9189 100.445 58.8872L115.813 52.195C115.874 52.1691 115.942 52.1665 116.004 52.1876C116.067 52.2087 116.119 52.2521 116.151 52.3094C116.184 52.3668 116.194 52.434 116.179 52.4982C116.165 52.5624 116.127 52.6191 116.074 52.6573V52.6558Z" fill="white"/>
<path opacity="0.88" d="M117.373 55.5557C117.358 55.566 117.343 55.5748 117.326 55.5819L101.958 62.2741C101.895 62.2972 101.824 62.2952 101.762 62.2685C101.7 62.2419 101.65 62.1925 101.623 62.1305C101.595 62.0685 101.593 61.9985 101.616 61.9347C101.638 61.8709 101.684 61.8181 101.745 61.7871L117.112 55.0949C117.173 55.068 117.242 55.0646 117.305 55.0854C117.368 55.1063 117.421 55.1499 117.453 55.2077C117.486 55.2655 117.496 55.3334 117.481 55.398C117.466 55.4627 117.427 55.5194 117.373 55.5572V55.5557Z" fill="white"/>
<path opacity="0.88" d="M118.82 58.7433C118.805 58.7536 118.789 58.7624 118.773 58.7695L103.405 65.4617C103.341 65.4848 103.271 65.4828 103.209 65.4562C103.146 65.4295 103.097 65.3801 103.069 65.3181C103.042 65.2561 103.04 65.1861 103.062 65.1223C103.085 65.0585 103.131 65.0058 103.191 64.9747L118.559 58.2825C118.62 58.2556 118.688 58.2522 118.752 58.273C118.815 58.2939 118.868 58.3375 118.9 58.3953C118.933 58.4531 118.943 58.521 118.928 58.5856C118.913 58.6503 118.874 58.707 118.82 58.7448V58.7433Z" fill="white"/>
<path opacity="0.88" d="M111.594 65.3115C111.579 65.3217 111.563 65.3305 111.547 65.3377L104.73 68.3058C104.667 68.3277 104.597 68.325 104.536 68.2982C104.474 68.2713 104.425 68.2223 104.398 68.1609C104.371 68.0994 104.368 68.0301 104.39 67.9667C104.412 67.9033 104.457 67.8505 104.516 67.8188L111.333 64.8507C111.394 64.8248 111.462 64.8221 111.524 64.8433C111.587 64.8644 111.639 64.9078 111.671 64.9651C111.704 65.0225 111.714 65.0897 111.699 65.1539C111.685 65.2181 111.647 65.2748 111.594 65.313V65.3115Z" fill="white"/>
</g>
<path d="M108.211 63.3518C108.133 63.1454 108.014 62.9571 107.861 62.7982C107.707 62.6393 107.523 62.5133 107.319 62.4278C107.116 62.3423 106.896 62.2991 106.675 62.3009C106.454 62.3027 106.236 62.3494 106.034 62.4382C105.648 62.6236 105.348 62.948 105.193 63.346C105.038 63.7439 105.04 64.1857 105.198 64.5821L105.74 66.8186C105.854 67.2916 105.791 67.7901 105.562 68.22C105.334 68.6499 104.955 68.9814 104.499 69.152V69.152C104.051 69.3194 103.558 69.3209 103.109 69.1562C102.66 68.9916 102.285 68.6717 102.053 68.2548C102.053 68.2548 98.6813 61.1495 98.6175 60.8603C98.0644 61.3986 97.0997 62.7229 96.9018 63.7212C96.8947 63.7265 97.8781 71.7006 98.4279 72.2625L104.132 81.0398C106.464 83.4235 114.291 79.4574 114.291 79.4574L108.211 63.3518Z" fill="#E98862"/>
<path d="M131.649 128.89C129.739 128.89 127.861 128.397 126.199 127.459C124.536 126.521 123.144 125.171 122.159 123.538L97.6044 82.8436L116.585 71.4451L135.251 102.383L166.279 82.7154L179.425 100.3L137.644 127.134C135.856 128.281 133.775 128.891 131.649 128.89V128.89Z" fill="#FFC600"/>
<path d="M163.921 110.432C163.879 110.432 163.838 110.418 163.805 110.392C163.772 110.366 163.749 110.33 163.739 110.289C163.729 110.248 163.733 110.206 163.75 110.167C163.768 110.129 163.798 110.098 163.835 110.079L169.196 107.318C169.241 107.296 169.292 107.291 169.34 107.306C169.387 107.321 169.426 107.355 169.449 107.399C169.472 107.443 169.477 107.495 169.461 107.542C169.446 107.589 169.413 107.629 169.369 107.651L164.007 110.411C163.981 110.425 163.951 110.432 163.921 110.432V110.432Z" fill="#0C0C0C"/>
<path d="M180.051 80.8656L182.713 76.7144C182.829 76.5325 182.99 76.3828 183.18 76.2791C183.369 76.1754 183.582 76.121 183.799 76.121H203.862C204.043 76.121 204.222 76.1589 204.387 76.2323C204.552 76.3057 204.7 76.4129 204.82 76.547L208.718 80.8656H180.051Z" fill="#FFC600"/>
<path d="M25.0763 247.128L24.4279 247.199L32.4329 320.179L33.0813 320.108L25.0763 247.128Z" fill="#292A2E"/>
<path d="M45.8094 278.989L41.8713 317.857L42.5202 317.922L46.4583 279.054L45.8094 278.989Z" fill="#292A2E"/>
<path d="M52.5816 313.158H23.3604V322.619H52.5816V313.158Z" fill="#292A2E"/>
<path opacity="0.2" d="M52.5816 313.158H23.3604V322.619H52.5816V313.158Z" fill="white"/>
<path d="M70.1977 295.738C75.7332 288.398 73.0944 277.099 64.3036 270.5C55.5129 263.901 43.8991 264.502 38.3635 271.842C32.8279 279.182 35.4668 290.481 44.2575 297.08C53.0483 303.679 64.6621 303.078 70.1977 295.738Z" fill="#474646"/>
<path opacity="0.2" d="M70.1977 295.738C75.7332 288.398 73.0944 277.099 64.3036 270.5C55.5129 263.901 43.8991 264.502 38.3635 271.842C32.8279 279.182 35.4668 290.481 44.2575 297.08C53.0483 303.679 64.6621 303.078 70.1977 295.738Z" fill="white"/>
<path opacity="0.5" d="M70.1965 295.739C69.8248 296.234 69.4192 296.703 68.9825 297.142C62.889 301.026 53.8947 300.415 46.7595 295.058C37.9695 288.461 35.3312 277.161 40.8676 269.821C41.2398 269.327 41.6443 268.859 42.0786 268.418C48.1751 264.531 57.1664 265.146 64.3046 270.5C73.0942 277.1 75.7325 288.4 70.1965 295.739Z" fill="white"/>
<path d="M29.4164 267.891C38.1249 261.184 40.4917 249.683 34.703 242.201C28.9142 234.719 17.1618 234.091 8.45336 240.797C-0.255119 247.504 -2.62201 259.005 3.16677 266.487C8.95554 273.969 20.7079 274.597 29.4164 267.891Z" fill="#474646"/>
<path opacity="0.2" d="M26.6603 265.966C19.916 271.163 11.3449 271.955 5.13192 268.572C4.41285 267.941 3.75611 267.242 3.1707 266.485C-2.62097 259.005 -0.254211 247.502 8.45394 240.797C15.1982 235.603 23.7693 234.808 29.9793 238.188C30.6998 238.82 31.3575 239.52 31.9431 240.279C37.7333 247.758 35.3666 259.262 26.6603 265.966Z" fill="white"/>
</g>
<defs>
<clipPath id="clip0_6_536">
<rect width="268" height="323" fill="white"/>
</clipPath>
</defs>
</svg>
