<svg width="501" height="1024" viewBox="0 0 501 1024" fill="none" xmlns="http://www.w3.org/2000/svg">
<rect width="501" height="1024" fill="#FFA800" fill-opacity="0.05"/>
<mask id="mask0_139_334" style="mask-type:alpha" maskUnits="userSpaceOnUse" x="2" y="0" width="501" height="375">
<mask id="path-2-inside-1_139_334" fill="white">
<path d="M2 0H503V375H2V0Z"/>
</mask>
<path d="M2 0H503V375H2V0Z" fill="#FFC600"/>
<path d="M3 375V0H1V375H3Z" fill="black" mask="url(#path-2-inside-1_139_334)"/>
</mask>
<g mask="url(#mask0_139_334)">
<path opacity="0.2" d="M403 71.2207C403 196.159 291.967 297.441 155 297.441C18.0334 297.441 -93 196.159 -93 71.2207C-93 -53.7175 18.0334 -155 155 -155C291.967 -155 403 -53.7175 403 71.2207Z" fill="#FFC600"/>
<ellipse opacity="0.2" cx="369.5" cy="74.7241" rx="190.5" ry="190.686" fill="#FFC600"/>
</g>
<path d="M233.824 849.192L84.3436 822.195C80.1067 821.429 76.3481 819.015 73.8945 815.484C71.4408 811.952 70.4929 807.593 71.2594 803.364L94.3751 675.878L140.385 645.302L266.656 668.112C270.893 668.877 274.652 671.291 277.105 674.821C279.559 678.352 280.507 682.711 279.741 686.94L252.688 836.133C252.309 838.227 251.52 840.225 250.367 842.015C249.214 843.805 247.719 845.35 245.967 846.563C244.215 847.775 242.241 848.632 240.158 849.083C238.074 849.534 235.922 849.571 233.824 849.192Z" fill="#FFC600"/>
<g opacity="0.88">
<path opacity="0.88" d="M245.51 762.204C245.359 762.208 245.207 762.196 245.059 762.169L105.184 736.351C104.593 736.242 104.07 735.903 103.729 735.409C103.388 734.915 103.258 734.306 103.367 733.716C103.477 733.126 103.816 732.604 104.311 732.264C104.806 731.924 105.416 731.794 106.007 731.903L245.882 757.722C246.432 757.824 246.924 758.126 247.264 758.57C247.605 759.013 247.768 759.567 247.724 760.124C247.679 760.68 247.43 761.201 247.024 761.585C246.618 761.969 246.083 762.19 245.524 762.204H245.51Z" fill="white"/>
<path opacity="0.88" d="M240.497 791.487C240.345 791.489 240.193 791.477 240.043 791.451L100.171 765.633C99.8693 765.59 99.579 765.485 99.3181 765.327C99.0571 765.169 98.8309 764.96 98.6529 764.712C98.475 764.464 98.3489 764.183 98.2823 763.886C98.2157 763.588 98.21 763.281 98.2654 762.981C98.3208 762.681 98.4363 762.396 98.6049 762.142C98.7735 761.887 98.9918 761.67 99.2466 761.502C99.5014 761.334 99.7876 761.219 100.088 761.164C100.388 761.109 100.697 761.116 100.995 761.183L240.866 787C241.42 787.099 241.917 787.4 242.261 787.845C242.604 788.29 242.77 788.846 242.725 789.406C242.681 789.965 242.429 790.488 242.019 790.873C241.609 791.258 241.071 791.477 240.508 791.487H240.497Z" fill="white"/>
<path opacity="0.88" d="M158.429 803.399C158.278 803.403 158.127 803.391 157.978 803.364L95.9353 791.912C95.6331 791.868 95.3429 791.764 95.0819 791.606C94.821 791.448 94.5948 791.238 94.4168 790.991C94.2388 790.743 94.1128 790.462 94.0462 790.165C93.9796 789.867 93.9738 789.559 94.0293 789.26C94.0847 788.96 94.2002 788.674 94.3688 788.42C94.5374 788.166 94.7556 787.949 95.0105 787.781C95.2653 787.613 95.5515 787.498 95.8518 787.443C96.1522 787.388 96.4606 787.394 96.7585 787.461L158.801 798.917C159.351 799.019 159.844 799.321 160.184 799.765C160.524 800.209 160.687 800.762 160.643 801.319C160.598 801.875 160.349 802.396 159.943 802.78C159.537 803.164 159.003 803.385 158.443 803.399H158.429Z" fill="white"/>
</g>
<path d="M246.173 738.408C245.62 738.407 245.068 738.357 244.524 738.258L214.257 732.75C213.064 732.533 211.924 732.083 210.906 731.425C209.887 730.767 209.008 729.915 208.32 728.917C207.632 727.919 207.149 726.796 206.898 725.611C206.647 724.426 206.633 723.203 206.856 722.013L211.942 689.937C212.383 687.558 213.742 685.447 215.728 684.059C217.714 682.671 220.166 682.118 222.557 682.518L252.916 687.697C254.12 687.9 255.272 688.341 256.304 688.993C257.336 689.645 258.228 690.495 258.927 691.494C259.627 692.494 260.12 693.622 260.378 694.813C260.637 696.005 260.655 697.236 260.431 698.434L255.253 730.864C254.857 732.98 253.733 734.892 252.075 736.269C250.418 737.647 248.33 738.403 246.173 738.408ZM221.014 685.958C219.7 685.961 218.428 686.421 217.416 687.258C216.404 688.094 215.715 689.256 215.467 690.544L210.382 722.62C210.238 723.351 210.242 724.104 210.392 724.833C210.542 725.563 210.836 726.256 211.256 726.872C211.677 727.488 212.215 728.014 212.841 728.42C213.467 728.826 214.167 729.105 214.902 729.239L245.168 734.747C246.631 735.003 248.137 734.676 249.361 733.836C250.585 732.995 251.43 731.709 251.713 730.253L256.899 697.799C257.037 697.065 257.027 696.312 256.871 695.582C256.714 694.852 256.414 694.161 255.987 693.548C255.56 692.935 255.015 692.414 254.384 692.013C253.753 691.613 253.048 691.341 252.311 691.215L221.952 686.036C221.642 685.984 221.328 685.957 221.014 685.958V685.958Z" fill="white"/>
<path d="M423.119 543.048L338.365 580.359C336.53 581.166 334.448 581.213 332.578 580.489C330.707 579.765 329.202 578.329 328.392 576.498L297 505.46L309.252 475.626L379.633 444.642C380.542 444.242 381.521 444.024 382.514 444.002C383.507 443.979 384.495 444.152 385.42 444.511C386.346 444.87 387.193 445.407 387.91 446.092C388.628 446.777 389.204 447.596 389.605 448.503L426.988 533.096C427.797 534.927 427.844 537.005 427.118 538.871C426.393 540.737 424.954 542.24 423.119 543.048V543.048Z" fill="#474646"/>
<g opacity="0.88">
<path opacity="0.88" d="M392.049 483.512C391.977 483.563 391.899 483.607 391.817 483.642L315.625 516.835C315.31 516.944 314.965 516.931 314.66 516.797C314.355 516.664 314.111 516.421 313.977 516.116C313.843 515.812 313.829 515.468 313.938 515.154C314.047 514.839 314.27 514.577 314.564 514.42L390.757 481.226C391.058 481.098 391.395 481.085 391.705 481.189C392.015 481.294 392.274 481.509 392.435 481.794C392.595 482.078 392.644 482.412 392.573 482.73C392.502 483.049 392.316 483.33 392.049 483.519V483.512Z" fill="white"/>
<path opacity="0.88" d="M398.491 497.895C398.419 497.947 398.342 497.99 398.26 498.025L322.066 531.219C321.75 531.333 321.402 531.324 321.093 531.191C320.784 531.059 320.537 530.814 320.402 530.507C320.267 530.199 320.255 529.852 320.367 529.536C320.479 529.219 320.708 528.957 321.007 528.803L397.199 495.61C397.5 495.476 397.841 495.459 398.154 495.563C398.466 495.666 398.729 495.883 398.891 496.169C399.052 496.456 399.101 496.793 399.027 497.113C398.953 497.434 398.762 497.715 398.491 497.903V497.895Z" fill="white"/>
<path opacity="0.88" d="M405.663 513.706C405.591 513.757 405.514 513.801 405.433 513.836L329.239 547.03C328.923 547.144 328.575 547.134 328.265 547.002C327.956 546.87 327.709 546.625 327.574 546.318C327.439 546.01 327.427 545.663 327.539 545.346C327.652 545.03 327.881 544.768 328.179 544.614L404.371 511.421C404.673 511.287 405.013 511.27 405.326 511.374C405.639 511.477 405.902 511.693 406.063 511.98C406.225 512.267 406.273 512.603 406.199 512.924C406.126 513.245 405.934 513.526 405.663 513.714V513.706Z" fill="white"/>
<path opacity="0.88" d="M369.838 546.285C369.765 546.335 369.687 546.379 369.606 546.415L335.81 561.136C335.495 561.245 335.151 561.232 334.845 561.099C334.54 560.965 334.296 560.722 334.162 560.418C334.029 560.113 334.015 559.769 334.123 559.455C334.232 559.14 334.455 558.878 334.749 558.721L368.546 543.999C368.847 543.871 369.184 543.857 369.494 543.962C369.803 544.067 370.063 544.282 370.224 544.567C370.384 544.851 370.433 545.184 370.362 545.503C370.291 545.821 370.104 546.102 369.838 546.292V546.285Z" fill="white"/>
</g>
<path d="M369.619 754C369.458 754 369.295 754 369.133 753.976C368.389 753.909 367.667 753.688 367.013 753.327C366.36 752.966 365.789 752.473 365.337 751.879L349.097 730.571C348.233 729.438 347.857 728.009 348.049 726.599C348.242 725.189 348.988 723.913 350.124 723.051C351.26 722.19 352.692 721.814 354.106 722.007C355.519 722.199 356.798 722.943 357.662 724.076L370.339 740.711L418.994 696.403C419.516 695.928 420.127 695.56 420.791 695.32C421.455 695.08 422.16 694.973 422.866 695.006C423.572 695.038 424.264 695.208 424.904 695.507C425.544 695.807 426.118 696.228 426.594 696.749C427.07 697.27 427.439 697.879 427.679 698.541C427.92 699.204 428.027 699.908 427.994 700.612C427.962 701.316 427.791 702.006 427.491 702.645C427.192 703.283 426.769 703.856 426.247 704.331L373.242 752.591C372.252 753.495 370.96 753.997 369.619 754Z" fill="#FFC600"/>
</svg>
